<svg version="1.1" id="Joomla" xmlns="http://www.w3.org/2000/svg" xmlns:xlink="http://www.w3.org/1999/xlink" x="0px" y="0px"
	 viewBox="0 0 381 114.3" style="enable-background:new 0 0 381 114.3;" xml:space="preserve">
<path fill="#3B3A40" d="M181.8,111.7c0,0.1,0,0.1,0,0.2c0,0,0,0.1-0.1,0.1c0,0-0.1,0-0.2,0c-0.1,0-0.2,0-0.3,0s-0.1,0-0.2,0
	c-0.1,0-0.1,0-0.1,0s-0.1,0-0.1-0.1s0-0.1,0-0.1l-0.4-2.5h-4.2l-1.4,2.5c0,0,0,0.1-0.1,0.1s-0.1,0-0.1,0.1c0,0-0.1,0-0.2,0
	c-0.1,0-0.1,0-0.2,0c-0.1,0-0.2,0-0.3,0s-0.1,0-0.2-0.1v-0.1c0,0,0-0.1,0.1-0.2l5.1-9l0.1-0.1c0,0,0.1,0,0.1-0.1s0.1,0,0.2,0
	c0.1,0,0.1,0,0.2,0c0.1,0,0.2,0,0.2,0c0.1,0,0.1,0,0.2,0c0,0,0.1,0,0.1,0.1v0.1L181.8,111.7z M179.5,103.5L179.5,103.5l-2.8,5.1h3.6
	L179.5,103.5z M188.3,111.9L188.3,111.9c0,0.1-0.1,0.1-0.1,0.1h-0.1c0,0-0.1,0-0.2,0c-0.1,0-0.2,0-0.2,0c-0.1,0-0.1,0-0.1,0
	s-0.1,0-0.1-0.1v-0.1l-0.4-1.8c-0.1-0.2-0.1-0.4-0.2-0.6c-0.1-0.2-0.2-0.3-0.3-0.4s-0.3-0.2-0.5-0.2s-0.4-0.1-0.6-0.1h-0.7l-0.6,3.1
	c0,0,0,0,0,0.1h-0.1H184c-0.1,0-0.1,0-0.2,0s-0.1,0-0.2,0c-0.1,0-0.1,0-0.1,0h-0.1c0,0,0,0,0-0.1l1.3-6.7c0,0,0,0,0-0.1h0.1h0.1
	c0.1,0,0.1,0,0.2,0s0.1,0,0.2,0c0.1,0,0.1,0,0.1,0h0.1c0,0,0,0,0,0.1l-0.6,2.9h0.6c0.2,0,0.4,0,0.6-0.1c0.2-0.1,0.4-0.1,0.5-0.2
	c0.2-0.1,0.3-0.2,0.5-0.4c0.1-0.2,0.3-0.3,0.4-0.6l0.9-1.5c0,0,0-0.1,0.1-0.1c0,0,0.1,0,0.1-0.1c0,0,0.1,0,0.2,0c0.1,0,0.1,0,0.2,0
	c0.1,0,0.2,0,0.2,0c0.1,0,0.1,0,0.1,0s0,0,0.1,0c0,0,0,0,0,0.1v0.1c0,0,0,0.1-0.1,0.1l-1.1,1.7c-0.1,0.2-0.3,0.4-0.4,0.5
	c-0.1,0.1-0.3,0.3-0.4,0.4c-0.1,0.1-0.3,0.2-0.4,0.3c-0.1,0.1-0.3,0.1-0.4,0.1l0,0c0.1,0,0.3,0.1,0.4,0.2c0.1,0.1,0.2,0.2,0.3,0.3
	c0.1,0.1,0.2,0.3,0.3,0.4c0.1,0.2,0.1,0.3,0.2,0.5l0.4,1.8C188.3,111.7,188.3,111.8,188.3,111.9
	C188.3,111.8,188.3,111.9,188.3,111.9z M199.4,111.9C199.4,111.9,199.4,112,199.4,111.9c0,0.1-0.1,0.1-0.1,0.1h-0.1c0,0-0.1,0-0.2,0
	c-0.1,0-0.2,0-0.2,0h-0.1c0,0,0,0-0.1-0.1v-0.1l0.8-4.2c0-0.2,0-0.3,0.1-0.4s0-0.3,0-0.4c0-0.4-0.1-0.6-0.2-0.9
	c-0.1-0.2-0.4-0.3-0.7-0.3s-0.6,0.1-0.8,0.2c-0.3,0.2-0.6,0.4-0.8,0.7c-0.3,0.3-0.5,0.6-0.7,1s-0.3,0.8-0.4,1.3l-0.6,2.9v0.1
	c0,0,0,0-0.1,0.1h-0.1c0,0-0.1,0-0.2,0s-0.2,0-0.2,0h-0.1c0,0,0,0-0.1-0.1v-0.1l0.8-4.2c0-0.2,0.1-0.3,0.1-0.5s0-0.3,0-0.4
	c0-0.3-0.1-0.6-0.2-0.8c-0.1-0.2-0.4-0.3-0.7-0.3s-0.6,0.1-0.8,0.2c-0.3,0.2-0.6,0.4-0.8,0.7c-0.3,0.3-0.5,0.6-0.7,1
	s-0.3,0.8-0.4,1.3l-0.6,2.9v0.1c0,0,0,0-0.1,0.1H191c0,0-0.1,0-0.2,0c-0.1,0-0.2,0-0.2,0h-0.1c0,0,0,0-0.1-0.1v-0.1l1.3-6.6v-0.1
	c0,0,0,0,0.1-0.1h0.1c0.1,0,0.1,0,0.2,0s0.1,0,0.2,0h0.1c0,0,0,0,0.1,0.1v0.1l-0.3,1.4c0.1-0.2,0.2-0.3,0.3-0.5s0.4-0.4,0.6-0.5
	c0.2-0.2,0.5-0.3,0.8-0.4s0.5-0.2,0.8-0.2s0.6,0,0.8,0.1s0.4,0.2,0.5,0.3c0.1,0.1,0.2,0.3,0.3,0.5s0.1,0.4,0.1,0.7
	c0.1-0.2,0.2-0.3,0.4-0.5s0.4-0.4,0.6-0.5c0.2-0.2,0.5-0.3,0.7-0.4s0.5-0.2,0.8-0.2s0.6,0,0.8,0.1s0.4,0.2,0.5,0.4
	c0.1,0.2,0.2,0.3,0.3,0.5s0.1,0.4,0.1,0.7c0,0.2,0,0.3,0,0.5s0,0.3-0.1,0.5L199.4,111.9z M207.5,105.2L207.5,105.2v0.2
	c-0.2,0.4-0.3,0.9-0.5,1.4s-0.4,1-0.7,1.5s-0.6,1.1-0.9,1.7c-0.4,0.6-0.8,1.2-1.3,1.9l-2,2.6l-0.1,0.1c0,0-0.1,0-0.1,0.1
	c0,0-0.1,0-0.2,0s-0.1,0-0.2,0c-0.1,0-0.2,0-0.2,0s-0.1,0-0.1-0.1v-0.1c0,0,0-0.1,0.1-0.1l1.9-2.4l-1.1-6.5c0-0.1,0-0.1,0-0.1v-0.1
	v-0.1c0,0,0,0,0.1-0.1h0.1c0.1,0,0.1,0,0.2,0c0.1,0,0.2,0,0.2,0c0.1,0,0.1,0,0.1,0s0.1,0,0.1,0.1v0.1l1,5.8l0,0
	c0.3-0.5,0.6-0.9,0.9-1.4c0.3-0.5,0.5-1,0.7-1.4c0.2-0.5,0.4-1,0.6-1.5c0.2-0.5,0.4-1,0.5-1.5v-0.1c0,0,0.1,0,0.1-0.1
	c0,0,0.1,0,0.2,0c0.1,0,0.1,0,0.2,0C207.2,105.1,207.4,105.1,207.5,105.2C207.5,105.1,207.5,105.2,207.5,105.2z M213.2,111.9
	c0,0.1-0.1,0.1-0.1,0.1s-0.2,0-0.3,0s-0.1,0-0.2,0h-0.1c0,0,0,0-0.1-0.1s0-0.1,0-0.1l0.3-1.4c-0.1,0.2-0.2,0.3-0.3,0.5
	s-0.4,0.4-0.6,0.5c-0.2,0.2-0.5,0.3-0.8,0.4s-0.6,0.2-0.9,0.2c-0.4,0-0.7-0.1-1-0.2s-0.5-0.3-0.6-0.5s-0.2-0.5-0.3-0.7
	c-0.1-0.3-0.1-0.6-0.1-0.8c0-0.3,0-0.6,0.1-0.9c0-0.3,0.1-0.7,0.2-1c0.1-0.4,0.3-0.7,0.4-1.1c0.2-0.3,0.4-0.7,0.6-0.9
	c0.3-0.3,0.6-0.5,0.9-0.7c0.3-0.2,0.7-0.3,1.2-0.3s0.8,0.1,1.1,0.3c0.3,0.2,0.6,0.4,0.8,0.7l0.2-0.7c0-0.1,0.1-0.1,0.1-0.1
	c0.1,0,0.2,0,0.3,0s0.1,0,0.2,0h0.1c0,0,0,0,0.1,0.1v0.1L213.2,111.9z M213.3,106.9c-0.3-0.4-0.5-0.7-0.8-0.8
	c-0.3-0.2-0.6-0.3-1-0.3c-0.3,0-0.6,0.1-0.8,0.2s-0.4,0.3-0.6,0.5c-0.2,0.2-0.3,0.5-0.5,0.8c-0.1,0.3-0.2,0.6-0.3,0.9
	s-0.1,0.6-0.2,0.9s-0.1,0.5-0.1,0.8c0,0.2,0,0.4,0,0.6s0.1,0.4,0.2,0.5c0.1,0.2,0.2,0.3,0.4,0.4s0.3,0.1,0.6,0.1s0.6-0.1,0.9-0.2
	c0.3-0.2,0.6-0.4,0.8-0.7c0.3-0.3,0.5-0.6,0.7-1s0.3-0.8,0.4-1.3L213.3,106.9z M220.7,111.9C220.7,111.9,220.7,112,220.7,111.9
	c-0.1,0.1-0.1,0.1-0.1,0.1h-0.1c-0.1,0-0.1,0-0.2,0c-0.1,0-0.2,0-0.2,0H220c0,0,0,0-0.1-0.1v-0.1l1.2-6h-0.3c-0.5,0-1,0.1-1.4,0.2
	s-0.7,0.3-1,0.6s-0.5,0.6-0.7,1s-0.3,0.9-0.5,1.5c-0.1,0.5-0.2,0.8-0.3,1.2c-0.1,0.3-0.2,0.6-0.3,0.8s-0.2,0.4-0.3,0.5
	s-0.3,0.2-0.4,0.3s-0.3,0.1-0.5,0.1s-0.4,0-0.7,0c-0.1,0-0.1,0-0.2,0c0,0-0.1-0.1-0.1-0.2c0,0,0,0,0-0.1v-0.1v-0.1
	c0,0,0-0.1,0.1-0.1l0.1-0.1h0.1c0.2,0,0.4,0,0.6-0.1c0.2,0,0.3-0.2,0.4-0.3s0.2-0.4,0.3-0.7c0.1-0.3,0.2-0.7,0.3-1.3
	c0.1-0.6,0.3-1.1,0.5-1.6s0.5-0.9,0.8-1.2c0.3-0.3,0.8-0.6,1.3-0.8c0.5-0.2,1.1-0.3,1.9-0.3c0.1,0,0.2,0,0.4,0c0.1,0,0.3,0,0.4,0
	c0.1,0,0.1,0,0.2,0.1c0,0.1,0.1,0.1,0,0.3L220.7,111.9z M228.6,109.4c0,0.5-0.1,0.9-0.3,1.2c-0.2,0.3-0.4,0.6-0.7,0.9
	s-0.6,0.4-1,0.5s-0.7,0.2-1.1,0.2c-0.4,0-0.8-0.1-1.1-0.2s-0.5-0.3-0.7-0.5s-0.3-0.5-0.3-0.8s0-0.6,0-1l0.9-4.4v-0.1
	c0,0,0,0,0.1-0.1h0.1c0.1,0,0.1,0,0.2,0c0.1,0,0.2,0,0.2,0c0.1,0,0.1,0,0.1,0s0,0,0.1,0.1v0.1l-0.5,2.5c0.2-0.1,0.4-0.1,0.7-0.2
	c0.3,0,0.5-0.1,0.8-0.1c0.4,0,0.7,0,1,0.1s0.5,0.2,0.7,0.4c0.2,0.2,0.4,0.4,0.5,0.6S228.6,109.1,228.6,109.4z M227.7,109.5
	c0-0.2,0-0.4-0.1-0.5s-0.2-0.3-0.3-0.4s-0.3-0.2-0.5-0.2c-0.2-0.1-0.4-0.1-0.6-0.1c-0.3,0-0.6,0-0.8,0.1c-0.3,0-0.5,0.1-0.7,0.2
	l-0.2,1.1c-0.1,0.6-0.1,1,0.2,1.3c0.2,0.3,0.6,0.4,1.1,0.4c0.3,0,0.6,0,0.8-0.1c0.3-0.1,0.5-0.2,0.7-0.4c0.2-0.2,0.3-0.4,0.4-0.6
	C227.6,110,227.7,109.8,227.7,109.5z M235.3,111.9C235.3,111.9,235.2,112,235.3,111.9c-0.1,0.1-0.1,0.1-0.1,0.1h-0.1
	c-0.1,0-0.1,0-0.2,0c-0.1,0-0.2,0-0.2,0h-0.1c0,0,0,0-0.1-0.1v-0.1l0.6-3.1h-3.6l-0.7,3.2v0.1c0,0,0,0-0.1,0.1h-0.1c0,0-0.1,0-0.2,0
	c-0.1,0-0.2,0-0.2,0h-0.1c0,0,0,0-0.1-0.1v-0.1l1.3-6.6v-0.1c0,0,0,0,0.1-0.1h0.1c0.1,0,0.1,0,0.2,0c0.1,0,0.2,0,0.2,0
	c0.1,0,0.1,0,0.1,0s0,0,0.1,0.1v0.1l-0.6,2.8h3.6l0.6-2.8v-0.1c0,0,0,0,0.1-0.1h0.1c0.1,0,0.1,0,0.2,0c0.1,0,0.2,0,0.2,0
	c0.1,0,0.1,0,0.1,0s0,0,0.1,0.1v0.1L235.3,111.9z M244.1,107.5c0,0.4,0,0.7-0.1,1.1s-0.2,0.7-0.3,1.1c-0.1,0.3-0.3,0.7-0.5,1
	s-0.5,0.6-0.7,0.8c-0.3,0.2-0.6,0.4-0.9,0.5s-0.7,0.2-1.2,0.2s-0.8-0.1-1.2-0.2c-0.3-0.1-0.6-0.3-0.8-0.5s-0.4-0.5-0.5-0.8
	s-0.1-0.6-0.1-1s0-0.7,0.1-1.1s0.2-0.7,0.3-1.1c0.1-0.3,0.3-0.7,0.5-1s0.5-0.6,0.7-0.8c0.3-0.2,0.6-0.4,0.9-0.5
	c0.4-0.1,0.7-0.2,1.2-0.2s0.8,0.1,1.2,0.2c0.3,0.1,0.6,0.3,0.8,0.5s0.4,0.5,0.5,0.8C244.1,106.7,244.1,107.1,244.1,107.5z
	 M243.2,107.5c0-0.3,0-0.5-0.1-0.7s-0.2-0.4-0.3-0.5s-0.3-0.3-0.5-0.3c-0.2-0.1-0.5-0.1-0.8-0.1s-0.6,0.1-0.9,0.2
	c-0.3,0.1-0.5,0.3-0.7,0.4c-0.2,0.2-0.4,0.4-0.5,0.7c-0.2,0.3-0.3,0.5-0.4,0.8c-0.1,0.3-0.2,0.6-0.2,0.9s-0.1,0.6-0.1,0.9
	s0,0.5,0.1,0.7s0.2,0.4,0.3,0.5s0.3,0.3,0.5,0.3c0.2,0.1,0.5,0.1,0.8,0.1s0.6-0.1,0.9-0.2c0.3-0.1,0.5-0.3,0.7-0.5s0.4-0.4,0.5-0.7
	c0.2-0.3,0.3-0.5,0.4-0.8c0.1-0.3,0.2-0.6,0.2-0.9S243.2,107.8,243.2,107.5z M255.2,105.8c0,0.1,0,0.4,0,0.6c0,0.3,0,0.6-0.1,0.9
	s-0.1,0.7-0.2,1s-0.2,0.7-0.3,1.1s-0.3,0.7-0.5,1s-0.5,0.6-0.7,0.9c-0.3,0.3-0.6,0.5-1,0.6c-0.4,0.2-0.8,0.2-1.3,0.2
	c-0.4,0-0.8-0.1-1.1-0.2s-0.5-0.3-0.7-0.5s-0.3-0.5-0.4-0.8c-0.1-0.3-0.1-0.6-0.1-0.9s0-0.6,0.1-1s0.1-0.7,0.3-1.1
	c0.1-0.4,0.3-0.7,0.5-1s0.4-0.6,0.7-0.9s0.6-0.4,0.9-0.6c0.3-0.1,0.7-0.2,1.2-0.2c0.3,0,0.5,0,0.7,0.1s0.4,0.2,0.6,0.3
	c0.2,0.1,0.3,0.3,0.4,0.4c0.1,0.2,0.2,0.3,0.2,0.5c0-0.1,0-0.1,0-0.2s0-0.2,0-0.3c0-0.4,0-0.8-0.1-1.2c-0.1-0.4-0.2-0.7-0.4-1
	s-0.5-0.5-0.8-0.7s-0.8-0.3-1.3-0.3c-0.1,0-0.2,0-0.3,0s-0.1-0.1-0.1-0.1s0,0,0-0.1v-0.1v-0.1V102v-0.1c0,0,0,0,0-0.1
	c0,0,0.1,0,0.1-0.1c0.1,0,0.1,0,0.2,0c0.5,0,1,0.1,1.4,0.2s0.8,0.4,1,0.7c0.3,0.3,0.5,0.7,0.7,1.2
	C255.2,104.5,255.2,105.1,255.2,105.8z M253.9,108c0-0.7-0.1-1.3-0.4-1.7c-0.3-0.4-0.7-0.6-1.2-0.6c-0.3,0-0.7,0.1-0.9,0.2
	s-0.5,0.3-0.7,0.6c-0.2,0.2-0.4,0.5-0.5,0.8s-0.2,0.6-0.3,0.9s-0.1,0.6-0.2,0.8s-0.1,0.5-0.1,0.7c0,0.6,0.1,1,0.3,1.3
	s0.6,0.5,1.1,0.5c0.3,0,0.6-0.1,0.9-0.2c0.3-0.1,0.5-0.3,0.7-0.4s0.4-0.4,0.5-0.6s0.3-0.5,0.4-0.7c0.1-0.3,0.2-0.5,0.2-0.8
	S253.9,108.2,253.9,108z M261.6,111.9C261.6,111.9,261.6,112,261.6,111.9c-0.1,0.1-0.1,0.1-0.1,0.1h-0.1c-0.1,0-0.1,0-0.2,0
	s-0.2,0-0.2,0h-0.1c0,0,0,0-0.1-0.1v-0.1l1.2-6h-0.2c-0.5,0-1,0.1-1.4,0.2s-0.7,0.3-1,0.6s-0.5,0.6-0.7,1s-0.3,0.9-0.5,1.5
	c-0.1,0.5-0.2,0.8-0.3,1.2c-0.1,0.3-0.2,0.6-0.3,0.8s-0.2,0.4-0.3,0.5c-0.1,0.1-0.3,0.2-0.4,0.3s-0.3,0.1-0.5,0.1s-0.4,0-0.7,0
	c-0.1,0-0.1,0-0.2,0c0,0-0.1-0.1-0.1-0.2c0,0,0,0,0-0.1v-0.1v-0.1c0,0,0-0.1,0.1-0.1l0.1-0.1h0.1c0.2,0,0.4,0,0.6-0.1
	c0.2,0,0.3-0.2,0.4-0.3s0.2-0.4,0.3-0.7c0.1-0.3,0.2-0.7,0.3-1.3c0.1-0.6,0.3-1.1,0.5-1.6s0.5-0.9,0.8-1.2c0.3-0.3,0.8-0.6,1.3-0.8
	c0.5-0.2,1.1-0.3,1.9-0.3c0.1,0,0.2,0,0.4,0c0.1,0,0.3,0,0.4,0s0.1,0,0.2,0.1c0,0.1,0.1,0.1,0,0.3L261.6,111.9z M268.5,111.9
	C268.5,111.9,268.5,112,268.5,111.9c-0.1,0.1-0.1,0.1-0.1,0.1h-0.1c0,0-0.1,0-0.2,0s-0.2,0-0.2,0c-0.1,0-0.1,0-0.1,0s0,0-0.1-0.1
	v-0.1l0.6-3h-1c-0.3,0-0.5,0-0.8,0.1s-0.4,0.2-0.6,0.3c-0.2,0.1-0.3,0.3-0.4,0.4s-0.2,0.3-0.3,0.5l-0.9,1.6c0,0.1-0.1,0.1-0.1,0.1
	l-0.1,0.1c0,0-0.1,0-0.2,0s-0.2,0-0.3,0c-0.1,0-0.1,0-0.2,0h-0.1c0,0,0,0-0.1-0.1s0,0,0-0.1l0,0c0,0,0,0,0-0.1c0,0,0-0.1,0.1-0.1
	c0-0.1,0.1-0.1,0.1-0.2l0.8-1.4c0.2-0.4,0.4-0.7,0.7-0.9c0.2-0.2,0.5-0.3,0.8-0.4c-0.4-0.1-0.7-0.3-0.9-0.5
	c-0.2-0.2-0.3-0.5-0.3-0.9c0-0.2,0-0.3,0.1-0.5s0.1-0.3,0.2-0.5s0.2-0.3,0.4-0.5c0.2-0.2,0.4-0.3,0.6-0.4s0.5-0.2,0.8-0.3
	s0.7-0.1,1.1-0.1c0.1,0,0.3,0,0.4,0s0.3,0,0.4,0s0.3,0,0.4,0s0.2,0,0.4,0s0.2,0.1,0.3,0.1c0.1,0.1,0.1,0.2,0.1,0.3L268.5,111.9z
	 M268.8,105.8c-0.2,0-0.4,0-0.6-0.1s-0.4,0-0.5,0c-0.5,0-0.9,0-1.2,0.2c-0.3,0.1-0.5,0.2-0.7,0.4c-0.2,0.2-0.3,0.3-0.3,0.5
	c-0.1,0.2-0.1,0.3-0.1,0.5s0,0.3,0.1,0.4s0.2,0.2,0.3,0.3c0.1,0.1,0.3,0.1,0.5,0.2c0.2,0,0.4,0.1,0.7,0.1h1.3L268.8,105.8z
	 M280,105.9c0,0.1,0,0.1,0,0.2s0,0.1-0.1,0.2c0,0.1-0.1,0.1-0.1,0.1l-0.1,0.1c-0.1,0-0.1,0-0.2-0.1s-0.2-0.2-0.3-0.3
	c-0.1-0.1-0.3-0.2-0.5-0.3s-0.5-0.1-0.8-0.1s-0.6,0.1-0.9,0.2s-0.5,0.3-0.7,0.5s-0.4,0.5-0.5,0.8s-0.2,0.6-0.3,0.9
	c-0.1,0.3-0.1,0.6-0.2,0.8c0,0.3-0.1,0.5-0.1,0.7c0,0.6,0.1,1,0.4,1.3s0.6,0.4,1.1,0.4c0.3,0,0.6,0,0.9-0.1c0.2-0.1,0.5-0.2,0.6-0.3
	c0.2-0.1,0.3-0.2,0.4-0.3c0.1-0.1,0.2-0.1,0.3-0.1h0.1v0.1c0,0,0,0.1,0,0.2s0,0.1,0,0.2s0,0.1-0.1,0.2s-0.1,0.1-0.1,0.2
	s-0.2,0.1-0.3,0.2c-0.1,0.1-0.3,0.2-0.5,0.3c-0.2,0.1-0.4,0.1-0.6,0.2s-0.5,0.1-0.7,0.1c-0.8,0-1.3-0.2-1.7-0.6
	c-0.4-0.4-0.6-1-0.6-1.7c0-0.3,0-0.6,0.1-1s0.1-0.7,0.3-1.1c0.1-0.4,0.3-0.7,0.5-1s0.4-0.6,0.7-0.9c0.3-0.3,0.6-0.5,0.9-0.6
	s0.8-0.2,1.2-0.2c0.2,0,0.4,0,0.6,0s0.4,0.1,0.5,0.1c0.2,0.1,0.3,0.1,0.4,0.2s0.2,0.2,0.3,0.2c0.1,0.1,0.1,0.1,0.1,0.2
	C280,105.8,280,105.9,280,105.9z M285.7,111.9c0,0.1-0.1,0.1-0.1,0.1s-0.2,0-0.3,0c-0.1,0-0.1,0-0.2,0H285c0,0,0,0-0.1-0.1
	s0-0.1,0-0.1l0.3-1.4c-0.1,0.2-0.2,0.3-0.3,0.5s-0.4,0.4-0.6,0.5c-0.2,0.2-0.5,0.3-0.8,0.4s-0.6,0.2-0.9,0.2c-0.4,0-0.7-0.1-1-0.2
	s-0.5-0.3-0.6-0.5s-0.2-0.5-0.3-0.7c-0.1-0.3-0.1-0.6-0.1-0.8c0-0.3,0-0.6,0.1-0.9c0-0.3,0.1-0.7,0.2-1c0.1-0.4,0.3-0.7,0.4-1.1
	c0.2-0.3,0.4-0.7,0.6-0.9c0.3-0.3,0.6-0.5,0.9-0.7s0.7-0.3,1.2-0.3s0.8,0.1,1.1,0.3c0.3,0.2,0.6,0.4,0.8,0.7l0.2-0.7
	c0-0.1,0.1-0.1,0.1-0.1c0.1,0,0.2,0,0.3,0c0.1,0,0.1,0,0.2,0h0.1c0,0,0,0,0.1,0.1v0.1L285.7,111.9z M285.8,106.9
	c-0.3-0.4-0.5-0.7-0.8-0.8c-0.3-0.2-0.6-0.3-1-0.3c-0.3,0-0.6,0.1-0.8,0.2c-0.2,0.1-0.4,0.3-0.6,0.5s-0.3,0.5-0.5,0.8
	c-0.1,0.3-0.2,0.6-0.3,0.9c-0.1,0.3-0.1,0.6-0.2,0.9s-0.1,0.5-0.1,0.8c0,0.2,0,0.4,0,0.6s0.1,0.4,0.2,0.5c0.1,0.2,0.2,0.3,0.4,0.4
	c0.2,0.1,0.3,0.1,0.6,0.1c0.3,0,0.6-0.1,0.9-0.2c0.3-0.2,0.6-0.4,0.8-0.7c0.3-0.3,0.5-0.6,0.7-1s0.3-0.8,0.4-1.3L285.8,106.9z
	 M293.3,111.9C293.3,111.9,293.3,112,293.3,111.9c-0.1,0.1-0.1,0.1-0.1,0.1h-0.1c0,0-0.1,0-0.2,0s-0.1,0-0.2,0s-0.1,0-0.1,0
	s0,0-0.1-0.1v-0.1l0.3-1.3c-0.1,0.2-0.2,0.3-0.3,0.5c-0.2,0.2-0.4,0.4-0.6,0.5c-0.2,0.2-0.5,0.3-0.8,0.4s-0.6,0.2-0.8,0.2
	c-0.3,0-0.6,0-0.8-0.1c-0.2-0.1-0.4-0.2-0.5-0.4c-0.1-0.2-0.2-0.3-0.3-0.5c-0.1-0.2-0.1-0.4-0.1-0.7c0-0.2,0-0.3,0-0.5
	s0-0.3,0.1-0.5l0.8-4.2v-0.1c0,0,0,0,0.1-0.1h0.1c0.1,0,0.1,0,0.2,0s0.2,0,0.2,0c0.1,0,0.1,0,0.1,0s0,0,0.1,0.1s0,0.1,0,0.1
	l-0.8,4.2c0,0.1-0.1,0.3-0.1,0.4s0,0.3,0,0.5s0,0.3,0,0.4s0.1,0.3,0.2,0.4s0.2,0.2,0.3,0.2c0.1,0.1,0.3,0.1,0.4,0.1
	c0.3,0,0.6-0.1,0.9-0.2c0.3-0.2,0.6-0.4,0.8-0.7c0.3-0.3,0.5-0.6,0.7-1s0.3-0.8,0.4-1.3l0.6-3v-0.1c0,0,0,0,0.1-0.1h0.1
	c0.1,0,0.1,0,0.2,0s0.2,0,0.2,0c0.1,0,0.1,0,0.1,0s0,0,0.1,0.1v0.1L293.3,111.9z M294.5,102.2c0,0.1,0,0.2-0.1,0.3s-0.1,0.3-0.2,0.4
	s-0.2,0.3-0.3,0.4c-0.1,0.1-0.3,0.3-0.4,0.4c-0.2,0.1-0.4,0.2-0.6,0.3c-0.2,0.1-0.5,0.1-0.8,0.1s-0.6,0-0.8-0.1
	c-0.2-0.1-0.4-0.2-0.5-0.3c-0.1-0.1-0.2-0.3-0.3-0.5c-0.1-0.2-0.1-0.4-0.1-0.6c0-0.1,0-0.1,0-0.2s0-0.1,0-0.2s0-0.1,0-0.1V102
	c0,0,0.1,0,0.1-0.1c0.1,0,0.2,0,0.3,0c0.1,0,0.1,0,0.2,0h0.1c0,0,0,0,0.1,0.1v0.1c0,0,0,0.1,0,0.2s0,0.1,0,0.2
	c0,0.2,0.1,0.4,0.2,0.6c0.2,0.2,0.4,0.2,0.8,0.2c0.2,0,0.3,0,0.5-0.1s0.3-0.1,0.4-0.2s0.2-0.2,0.3-0.4s0.2-0.3,0.2-0.5V102
	c0,0,0-0.1,0.1-0.1h0.1c0,0,0.1,0,0.2,0s0.2,0,0.2,0c0.1,0,0.1,0,0.1,0C294.5,102,294.5,102,294.5,102.2
	C294.5,102.1,294.5,102.1,294.5,102.2z M305.1,111.9C305.1,111.9,305.1,112,305.1,111.9c0,0.1-0.1,0.1-0.1,0.1h-0.1c0,0-0.1,0-0.2,0
	s-0.2,0-0.2,0h-0.1c0,0,0,0-0.1-0.1v-0.1l0.8-4.2c0-0.2,0-0.3,0.1-0.4s0-0.3,0-0.4c0-0.4-0.1-0.6-0.2-0.9c-0.1-0.2-0.4-0.3-0.7-0.3
	c-0.3,0-0.6,0.1-0.8,0.2c-0.3,0.2-0.6,0.4-0.8,0.7c-0.3,0.3-0.5,0.6-0.7,1s-0.3,0.8-0.4,1.3l-0.8,3.1v0.1c0,0,0,0-0.1,0.1h-0.1
	c0,0-0.1,0-0.2,0s-0.2,0-0.2,0h-0.1c0,0,0,0-0.1-0.1v-0.1l0.8-4.2c0-0.2,0.1-0.3,0.1-0.5s0-0.3,0-0.4c0-0.3-0.1-0.6-0.2-0.8
	c-0.1-0.2-0.4-0.3-0.7-0.3c-0.3,0-0.6,0.1-0.8,0.2c-0.3,0.2-0.6,0.4-0.8,0.7c-0.3,0.3-0.5,0.6-0.7,1s-0.3,0.8-0.4,1.3l-0.6,2.9v0.1
	c0,0,0,0-0.1,0.1h-0.1c0,0-0.1,0-0.2,0s-0.2,0-0.2,0H296c0,0,0,0-0.1-0.1v-0.1l1.3-6.6v-0.1c0,0,0,0,0.1-0.1h0.1c0.1,0,0.1,0,0.2,0
	s0.1,0,0.2,0h0.1c0,0,0,0,0.1,0.1v0.1l-0.3,1.4c0.1-0.2,0.2-0.3,0.3-0.5s0.4-0.4,0.6-0.5c0.2-0.2,0.5-0.3,0.8-0.4s0.5-0.2,0.8-0.2
	s0.6,0,0.8,0.1c0.2,0.1,0.4,0.2,0.5,0.3c0.1,0.1,0.2,0.3,0.3,0.5c0.1,0.2,0.1,0.4,0.1,0.7c0.1-0.2,0.2-0.3,0.4-0.5
	c0.2-0.2,0.4-0.4,0.6-0.5c0.2-0.2,0.5-0.3,0.7-0.4s0.5-0.2,0.8-0.2s0.6,0,0.8,0.1c0.2,0.1,0.4,0.2,0.5,0.4c0.1,0.2,0.2,0.3,0.3,0.5
	c0.1,0.2,0.1,0.4,0.1,0.7c0,0.2,0,0.3,0,0.5s0,0.3-0.1,0.5L305.1,111.9z M313.9,107.5c0,0.4,0,0.7-0.1,1.1s-0.2,0.7-0.3,1.1
	c-0.1,0.3-0.3,0.7-0.5,1s-0.5,0.6-0.7,0.8c-0.3,0.2-0.6,0.4-0.9,0.5s-0.7,0.2-1.2,0.2s-0.8-0.1-1.2-0.2c-0.3-0.1-0.6-0.3-0.8-0.5
	c-0.2-0.2-0.4-0.5-0.5-0.8s-0.1-0.6-0.1-1s0-0.7,0.1-1.1s0.2-0.7,0.3-1.1c0.1-0.3,0.3-0.7,0.5-1s0.5-0.6,0.7-0.8
	c0.3-0.2,0.6-0.4,0.9-0.5c0.4-0.1,0.7-0.2,1.2-0.2s0.8,0.1,1.2,0.2c0.3,0.1,0.6,0.3,0.8,0.5c0.2,0.2,0.4,0.5,0.5,0.8
	C313.8,106.7,313.9,107.1,313.9,107.5z M313,107.5c0-0.3,0-0.5-0.1-0.7s-0.2-0.4-0.3-0.5c-0.1-0.1-0.3-0.3-0.5-0.3
	c-0.2-0.1-0.5-0.1-0.8-0.1s-0.6,0.1-0.9,0.2s-0.5,0.3-0.7,0.4c-0.2,0.2-0.4,0.4-0.5,0.7c-0.2,0.3-0.3,0.5-0.4,0.8s-0.2,0.6-0.2,0.9
	s-0.1,0.6-0.1,0.9s0,0.5,0.1,0.7s0.2,0.4,0.3,0.5c0.1,0.1,0.3,0.3,0.5,0.3c0.2,0.1,0.5,0.1,0.8,0.1s0.6-0.1,0.9-0.2s0.5-0.3,0.7-0.5
	s0.4-0.4,0.5-0.7c0.2-0.3,0.3-0.5,0.4-0.8s0.2-0.6,0.2-0.9S313,107.8,313,107.5z M320.6,109.7c0,0.2,0,0.4-0.1,0.6s-0.1,0.4-0.3,0.6
	c-0.1,0.2-0.3,0.4-0.4,0.5s-0.4,0.3-0.6,0.4s-0.5,0.2-0.8,0.3c-0.3,0.1-0.6,0.1-0.9,0.1c-0.5,0-0.9-0.1-1.2-0.2s-0.6-0.3-0.7-0.5
	c-0.2-0.2-0.3-0.4-0.3-0.7c-0.1-0.3-0.1-0.5-0.1-0.8c0-0.2,0-0.5,0.1-0.8c0-0.3,0.1-0.7,0.2-1c0.1-0.4,0.2-0.7,0.4-1.1
	s0.4-0.7,0.7-1c0.3-0.3,0.6-0.5,1-0.7s0.9-0.3,1.4-0.3c0.4,0,0.7,0,0.9,0.1c0.3,0.1,0.5,0.2,0.7,0.3c0.2,0.1,0.3,0.3,0.4,0.5
	s0.1,0.4,0.1,0.6s0,0.4-0.1,0.6s-0.2,0.4-0.3,0.5c-0.1,0.1-0.3,0.3-0.5,0.4s-0.4,0.2-0.6,0.3c0.2,0.1,0.4,0.1,0.6,0.2
	c0.1,0.1,0.3,0.2,0.3,0.3c0.1,0.1,0.1,0.3,0.2,0.4C320.6,109.4,320.6,109.5,320.6,109.7z M319.7,109.7c0-0.1,0-0.3-0.1-0.4
	s-0.1-0.2-0.3-0.3c-0.1-0.1-0.3-0.2-0.5-0.2s-0.5-0.1-0.8-0.1h-1.8c0,0.2-0.1,0.4-0.1,0.6s0,0.4,0,0.6c0,0.5,0.1,0.9,0.4,1.2
	s0.6,0.4,1.2,0.4c0.4,0,0.7-0.1,1-0.2s0.5-0.2,0.6-0.4c0.2-0.2,0.3-0.3,0.4-0.5C319.6,110.1,319.7,109.9,319.7,109.7z M320.1,106.6
	c0-0.1,0-0.2-0.1-0.4c-0.1-0.1-0.1-0.2-0.2-0.3c-0.1-0.1-0.2-0.1-0.4-0.2c-0.2,0-0.3-0.1-0.6-0.1c-0.3,0-0.5,0-0.8,0.1
	s-0.5,0.2-0.7,0.4s-0.4,0.4-0.6,0.7c-0.2,0.3-0.3,0.6-0.4,1h1.8c0.3,0,0.6,0,0.9-0.1c0.2-0.1,0.4-0.2,0.6-0.3
	c0.2-0.1,0.3-0.3,0.4-0.4C320,107,320.1,106.8,320.1,106.6z M326.9,105.3C326.9,105.2,326.9,105.2,326.9,105.3
	c0-0.1,0.1-0.1,0.1-0.1h0.1c0.1,0,0.1,0,0.2,0s0.2,0,0.2,0c0.1,0,0.1,0,0.1,0s0,0,0.1,0.1v0.1l-0.8,4.2c0,0.2,0,0.3-0.1,0.4
	c0,0.1,0,0.3,0,0.4c0,0.4,0.1,0.6,0.2,0.9s0.4,0.3,0.7,0.3c0.3,0,0.5-0.1,0.8-0.2s0.5-0.4,0.8-0.7c0.3-0.3,0.5-0.6,0.7-1
	s0.3-0.8,0.4-1.3l0.6-2.9v-0.1c0,0,0,0,0.1-0.1h0.1c0.1,0,0.1,0,0.2,0s0.2,0,0.2,0c0.1,0,0.1,0,0.1,0s0,0,0.1,0.1v0.1l-0.8,4.2
	c0,0.2-0.1,0.3-0.1,0.5s0,0.3,0,0.4c0,0.3,0.1,0.6,0.2,0.8c0.1,0.2,0.4,0.3,0.7,0.3c0.3,0,0.5-0.1,0.8-0.2s0.5-0.4,0.8-0.7
	c0.3-0.3,0.5-0.6,0.7-1s0.3-0.8,0.4-1.3l0.6-2.9v-0.1c0,0,0,0,0.1-0.1h0.1c0.1,0,0.1,0,0.2,0s0.2,0,0.2,0c0.1,0,0.1,0,0.1,0
	s0,0,0.1,0.1v0.1l-1.3,6.6v0.1c0,0,0,0-0.1,0.1h-0.1c0,0-0.1,0-0.2,0s-0.1,0-0.2,0s-0.1,0-0.1,0s0,0-0.1-0.1v-0.1l0.3-1.4
	c-0.1,0.2-0.2,0.3-0.4,0.5s-0.4,0.4-0.6,0.5c-0.2,0.2-0.5,0.3-0.7,0.4c-0.3,0.1-0.5,0.2-0.8,0.2s-0.5,0-0.7-0.1s-0.4-0.2-0.5-0.3
	c-0.1-0.1-0.2-0.3-0.3-0.5s-0.1-0.4-0.1-0.7c-0.1,0.2-0.2,0.3-0.4,0.5c-0.2,0.2-0.4,0.4-0.6,0.5c-0.2,0.2-0.5,0.3-0.7,0.4
	c-0.3,0.1-0.5,0.2-0.8,0.2s-0.5,0-0.8-0.1c-0.2-0.1-0.4-0.2-0.5-0.4s-0.2-0.3-0.3-0.6c-0.1-0.2-0.1-0.4-0.1-0.7c0-0.2,0-0.3,0-0.5
	s0-0.3,0.1-0.5L326.9,105.3z M342,111.9L342,111.9c0,0.1-0.1,0.1-0.1,0.1h-0.1c0,0-0.1,0-0.2,0s-0.2,0-0.2,0c-0.1,0-0.1,0-0.1,0
	s-0.1,0-0.1-0.1v-0.1l-0.4-1.8c-0.1-0.2-0.1-0.4-0.2-0.6s-0.2-0.3-0.3-0.4c-0.1-0.1-0.3-0.2-0.5-0.2s-0.4-0.1-0.6-0.1h-0.6l-0.6,3.1
	c0,0,0,0,0,0.1h-0.1h-0.1c-0.1,0-0.1,0-0.2,0s-0.1,0-0.2,0s-0.1,0-0.1,0h-0.1c0,0,0,0,0-0.1l1.3-6.7c0,0,0,0,0-0.1h0.1h0.1
	c0.1,0,0.1,0,0.2,0s0.1,0,0.2,0s0.1,0,0.1,0h0.1c0,0,0,0,0,0.1l-0.6,2.9h0.6c0.2,0,0.4,0,0.6-0.1s0.4-0.1,0.5-0.2
	c0.2-0.1,0.3-0.2,0.5-0.4c0.1-0.2,0.3-0.3,0.4-0.6l0.9-1.5c0,0,0-0.1,0.1-0.1c0,0,0.1,0,0.1-0.1c0,0,0.1,0,0.2,0s0.1,0,0.2,0
	s0.1,0,0.2,0s0.1,0,0.1,0s0,0,0.1,0c0,0,0,0,0,0.1v0.1c0,0,0,0.1-0.1,0.1L342,107c-0.1,0.2-0.3,0.4-0.4,0.5s-0.3,0.3-0.4,0.4
	s-0.3,0.2-0.4,0.3c-0.1,0.1-0.3,0.1-0.4,0.1l0,0c0.1,0,0.3,0.1,0.4,0.2s0.2,0.2,0.3,0.3c0.1,0.1,0.2,0.3,0.3,0.4
	c0.1,0.2,0.1,0.3,0.2,0.5l0.4,1.8C342,111.7,342,111.8,342,111.9C342,111.8,342,111.9,342,111.9z M349.9,107.5c0,0.4,0,0.7-0.1,1.1
	s-0.2,0.7-0.3,1.1c-0.1,0.3-0.3,0.7-0.5,1s-0.5,0.6-0.7,0.8c-0.3,0.2-0.6,0.4-0.9,0.5s-0.7,0.2-1.2,0.2s-0.8-0.1-1.2-0.2
	c-0.3-0.1-0.6-0.3-0.8-0.5c-0.2-0.2-0.4-0.5-0.5-0.8s-0.1-0.6-0.1-1s0-0.7,0.1-1.1s0.2-0.7,0.3-1.1c0.1-0.3,0.3-0.7,0.5-1
	s0.5-0.6,0.7-0.8c0.3-0.2,0.6-0.4,0.9-0.5c0.4-0.1,0.7-0.2,1.2-0.2s0.8,0.1,1.2,0.2c0.3,0.1,0.6,0.3,0.8,0.5
	c0.2,0.2,0.4,0.5,0.5,0.8C349.9,106.7,349.9,107.1,349.9,107.5z M349,107.5c0-0.3,0-0.5-0.1-0.7s-0.2-0.4-0.3-0.5
	c-0.1-0.1-0.3-0.3-0.5-0.3c-0.2-0.1-0.5-0.1-0.8-0.1s-0.6,0.1-0.9,0.2s-0.5,0.3-0.7,0.4c-0.2,0.2-0.4,0.4-0.5,0.7
	c-0.2,0.3-0.3,0.5-0.4,0.8s-0.2,0.6-0.2,0.9s-0.1,0.6-0.1,0.9s0,0.5,0.1,0.7s0.2,0.4,0.3,0.5c0.1,0.1,0.3,0.3,0.5,0.3
	c0.2,0.1,0.5,0.1,0.8,0.1s0.6-0.1,0.9-0.2s0.5-0.3,0.7-0.5s0.4-0.4,0.5-0.7c0.2-0.3,0.3-0.5,0.4-0.8s0.2-0.6,0.2-0.9
	S349,107.8,349,107.5z M356,111.9C356,111.9,356,112,356,111.9c-0.1,0.1-0.1,0.1-0.1,0.1h-0.1c-0.1,0-0.1,0-0.2,0s-0.2,0-0.2,0h-0.1
	c0,0,0,0-0.1-0.1v-0.1l1.2-6h-0.2c-0.5,0-1,0.1-1.4,0.2s-0.7,0.3-1,0.6s-0.5,0.6-0.7,1s-0.3,0.9-0.5,1.5c-0.1,0.5-0.2,0.8-0.3,1.2
	c-0.1,0.3-0.2,0.6-0.3,0.8s-0.2,0.4-0.3,0.5c-0.1,0.1-0.3,0.2-0.4,0.3s-0.3,0.1-0.5,0.1s-0.4,0-0.7,0c-0.1,0-0.1,0-0.2,0
	c0,0-0.1-0.1-0.1-0.2c0,0,0,0,0-0.1v-0.1v-0.1c0,0,0-0.1,0.1-0.1l0.1-0.1h0.1c0.2,0,0.4,0,0.6-0.1c0.2,0,0.3-0.2,0.4-0.3
	s0.2-0.4,0.3-0.7c0.1-0.3,0.2-0.7,0.3-1.3c0.1-0.6,0.3-1.1,0.5-1.6s0.5-0.9,0.8-1.2c0.3-0.3,0.8-0.6,1.3-0.8
	c0.5-0.2,1.1-0.3,1.9-0.3c0.1,0,0.2,0,0.4,0c0.1,0,0.3,0,0.4,0s0.1,0,0.2,0.1c0,0.1,0.1,0.1,0,0.3L356,111.9z M368.8,104.7
	c0,0.3,0,0.5-0.1,0.8s-0.2,0.5-0.3,0.8c-0.1,0.3-0.3,0.5-0.5,0.7s-0.4,0.4-0.7,0.6c-0.3,0.2-0.6,0.3-0.9,0.4s-0.8,0.2-1.2,0.2h-1.5
	l-0.7,3.6v0.1c0,0,0,0-0.1,0.1h-0.1c0,0-0.1,0-0.2,0s-0.1,0-0.2,0s-0.1,0-0.1,0s-0.1,0-0.1-0.1s0-0.1,0-0.1l1.8-8.9
	c0-0.2,0.1-0.3,0.2-0.4s0.2-0.1,0.4-0.1h1.8c0.2,0,0.4,0,0.6,0s0.4,0,0.5,0.1c0.2,0.1,0.5,0.1,0.7,0.3c0.2,0.1,0.4,0.3,0.5,0.4
	s0.2,0.4,0.3,0.6C368.8,104.2,368.8,104.5,368.8,104.7z M367.9,104.8c0-0.3-0.1-0.6-0.3-0.9c-0.2-0.2-0.4-0.4-0.8-0.5
	c-0.1,0-0.3-0.1-0.4-0.1s-0.3,0-0.5,0h-1.4l-0.8,4.1h1.4c0.4,0,0.7,0,1-0.1s0.5-0.2,0.7-0.3c0.2-0.1,0.4-0.3,0.5-0.5
	s0.2-0.4,0.3-0.6c0.1-0.2,0.1-0.4,0.2-0.6C367.8,105.2,367.9,105,367.9,104.8z M378.7,106.2c0,0.3,0,0.7-0.1,1s-0.2,0.7-0.3,1
	c-0.2,0.3-0.4,0.6-0.6,0.9s-0.5,0.5-0.9,0.7s-0.8,0.4-1.2,0.5c-0.5,0.1-1,0.2-1.6,0.2l-0.2,1.4v0.1c0,0,0,0-0.1,0.1h-0.1
	c0,0-0.1,0-0.2,0s-0.2,0-0.2,0c-0.1,0-0.1,0-0.1,0s-0.1,0-0.1-0.1v-0.1l0.2-1.3c-0.6,0-1.1-0.1-1.5-0.3s-0.8-0.3-1-0.6
	c-0.3-0.2-0.5-0.5-0.6-0.8s-0.2-0.7-0.2-1.1c0-0.3,0-0.7,0.1-1s0.2-0.7,0.3-1s0.4-0.6,0.6-0.9s0.5-0.5,0.9-0.7
	c0.3-0.2,0.8-0.4,1.2-0.5c0.5-0.1,1-0.2,1.5-0.2l0.2-1.2v-0.1c0,0,0.1,0,0.1-0.1h0.1c0,0,0.1,0,0.2,0s0.2,0,0.2,0c0.1,0,0.1,0,0.1,0
	s0.1,0,0.1,0.1s0,0.1,0,0.1l-0.2,1.2c0.6,0,1.2,0.1,1.6,0.3c0.4,0.2,0.8,0.4,1,0.6s0.4,0.5,0.5,0.8
	C378.7,105.6,378.7,105.9,378.7,106.2z M374.4,104.3c-0.5,0-0.9,0.1-1.3,0.2s-0.7,0.3-1,0.5s-0.5,0.4-0.7,0.7
	c-0.2,0.2-0.3,0.5-0.4,0.7c-0.1,0.3-0.2,0.5-0.2,0.8c0,0.2-0.1,0.5-0.1,0.7c0,0.3,0,0.5,0.1,0.8c0.1,0.2,0.2,0.5,0.4,0.6
	c0.2,0.2,0.4,0.3,0.8,0.4c0.3,0.1,0.7,0.2,1.2,0.2L374.4,104.3z M377.8,106.4c0-0.3,0-0.6-0.1-0.8s-0.2-0.5-0.4-0.6
	s-0.5-0.3-0.8-0.4s-0.7-0.2-1.2-0.2l-1.1,5.6c0.5,0,0.9-0.1,1.3-0.2s0.7-0.3,0.9-0.5s0.5-0.4,0.7-0.6s0.3-0.5,0.4-0.7
	s0.2-0.5,0.2-0.8S377.8,106.6,377.8,106.4z"/>
<path fill="#3B3A40" d="M125.9,94c0,0.1,0,0.1-0.1,0.2c0,0-0.1,0.1-0.2,0.1s-0.2,0.1-0.4,0.1c-0.2,0-0.3,0-0.6,0c-0.3,0-0.5,0-0.6,0
	c-0.2,0-0.3,0-0.4-0.1s-0.2-0.1-0.2-0.1c0-0.1-0.1-0.1-0.1-0.2l-0.9-2.5c-0.1-0.4-0.3-0.7-0.4-0.9s-0.3-0.5-0.5-0.6
	c-0.2-0.2-0.4-0.3-0.6-0.3s-0.5-0.1-0.7-0.1h-0.5v4.6c0,0.1,0,0.1-0.1,0.2c0,0-0.1,0.1-0.2,0.1s-0.2,0.1-0.4,0.1c-0.1,0-0.3,0-0.6,0
	c-0.2,0-0.4,0-0.6,0c-0.1,0-0.3,0-0.4-0.1s-0.2-0.1-0.2-0.1s-0.1-0.1-0.1-0.2V83.3c0-0.1,0-0.1,0.1-0.2c0,0,0.1-0.1,0.2-0.1
	s0.2-0.1,0.4-0.1c0.1,0,0.3,0,0.6,0c0.2,0,0.4,0,0.6,0c0.1,0,0.3,0,0.4,0.1s0.1,0.1,0.2,0.1c0,0,0.1,0.1,0.1,0.2v4.3h0.5
	c0.3,0,0.5,0,0.7-0.1s0.4-0.2,0.5-0.3s0.3-0.3,0.4-0.6s0.3-0.5,0.4-0.9l0.8-2.3c0-0.1,0.1-0.2,0.1-0.2s0.1-0.1,0.2-0.1
	s0.2-0.1,0.4-0.1c0.1,0,0.4,0,0.6,0s0.4,0,0.6,0c0.1,0,0.3,0,0.4,0.1c0.1,0,0.1,0.1,0.2,0.1c0,0,0,0.1,0,0.2s0,0.2,0,0.3
	s-0.1,0.3-0.1,0.4l-0.8,2c-0.1,0.4-0.3,0.7-0.4,1s-0.3,0.5-0.4,0.7c-0.2,0.2-0.3,0.3-0.5,0.5s-0.4,0.2-0.6,0.3l0,0
	c0.2,0.1,0.4,0.2,0.6,0.3s0.4,0.3,0.5,0.5s0.3,0.4,0.5,0.7s0.3,0.6,0.5,1l0.9,2.4C125.8,93.7,125.8,93.9,125.9,94
	C126,94.1,125.9,94,125.9,94z M135.1,90.1c0,0.7-0.1,1.3-0.3,1.8s-0.4,1-0.8,1.4s-0.8,0.7-1.3,0.9s-1.2,0.3-1.9,0.3
	s-1.3-0.1-1.8-0.3s-0.9-0.5-1.3-0.8c-0.4-0.3-0.6-0.8-0.8-1.4s-0.2-1.2-0.2-1.8c0-0.7,0.1-1.3,0.3-1.8c0.2-0.6,0.4-1,0.8-1.4
	c0.4-0.4,0.8-0.7,1.3-0.9s1.2-0.3,1.9-0.3s1.3,0.1,1.8,0.3s0.9,0.5,1.3,0.8s0.6,0.8,0.8,1.4S135.1,89.4,135.1,90.1z M132.9,90.1
	c0-0.4,0-0.7-0.1-1.1c-0.1-0.3-0.2-0.6-0.3-0.8s-0.3-0.4-0.6-0.6s-0.5-0.2-0.9-0.2c-0.3,0-0.6,0.1-0.9,0.2c-0.2,0.1-0.4,0.3-0.6,0.5
	c-0.2,0.2-0.3,0.5-0.4,0.8c-0.1,0.3-0.1,0.7-0.1,1.1s0,0.7,0.1,1.1c0.1,0.3,0.2,0.6,0.3,0.8s0.3,0.4,0.6,0.6
	c0.2,0.1,0.6,0.2,0.9,0.2c0.3,0,0.6-0.1,0.9-0.2s0.4-0.3,0.6-0.5s0.3-0.5,0.4-0.8C132.8,90.9,132.9,90.6,132.9,90.1z M147.9,94
	c0,0.1-0.1,0.2-0.2,0.3s-0.4,0.1-0.8,0.1c-0.2,0-0.4,0-0.5,0s-0.2,0-0.3,0s-0.1-0.1-0.1-0.1s0-0.1,0-0.2l-0.5-4.2c0-0.2,0-0.3,0-0.5
	s0-0.4,0-0.6s0-0.4,0-0.6s0-0.4,0-0.5v-0.2c0,0.2-0.1,0.3-0.1,0.5s-0.1,0.4-0.2,0.6s-0.1,0.4-0.2,0.6s-0.1,0.4-0.1,0.5l-1.4,4.3
	c0,0.1-0.1,0.1-0.1,0.2s-0.1,0.1-0.2,0.1s-0.2,0.1-0.3,0.1s-0.3,0-0.5,0s-0.3,0-0.5,0c-0.1,0-0.2,0-0.3-0.1s-0.2-0.1-0.2-0.1
	s-0.1-0.1-0.1-0.2l-1.3-4.3c0-0.2-0.1-0.3-0.2-0.5s-0.1-0.4-0.2-0.6s-0.1-0.4-0.2-0.6s-0.1-0.4-0.1-0.5v0.2c0,0.2,0,0.3,0,0.5
	s0,0.4,0,0.6s0,0.4-0.1,0.6s0,0.4,0,0.5l-0.4,4.2c0,0.1,0,0.1-0.1,0.2c0,0.1-0.1,0.1-0.2,0.1s-0.2,0-0.3,0.1c-0.1,0-0.3,0-0.6,0
	c-0.2,0-0.4,0-0.5,0s-0.2,0-0.3-0.1c-0.1,0-0.1-0.1-0.1-0.1s0-0.1,0-0.2l0.8-7.3c0-0.3,0.1-0.4,0.2-0.6s0.3-0.2,0.6-0.2h1.1
	c0.2,0,0.4,0,0.6,0.1s0.3,0.1,0.4,0.2s0.2,0.2,0.3,0.4s0.2,0.3,0.2,0.6l0.9,2.7c0.1,0.2,0.1,0.4,0.2,0.5s0.1,0.4,0.2,0.6
	c0.1,0.2,0.1,0.4,0.1,0.6s0.1,0.3,0.1,0.5l0,0c0-0.2,0.1-0.3,0.1-0.5s0.1-0.4,0.1-0.6s0.1-0.4,0.2-0.6s0.1-0.4,0.2-0.5l0.9-2.7
	c0.1-0.2,0.1-0.4,0.2-0.5c0.1-0.2,0.2-0.3,0.3-0.4s0.2-0.2,0.4-0.2s0.4-0.1,0.6-0.1h1.1c0.3,0,0.5,0.1,0.6,0.2s0.2,0.3,0.2,0.6
	L147.9,94z M157.1,94.1c0,0.1,0,0.1-0.1,0.2c0,0-0.1,0.1-0.2,0.1s-0.2,0.1-0.3,0.1s-0.3,0-0.5,0s-0.4,0-0.5,0s-0.3,0-0.3-0.1
	s-0.1-0.1-0.2-0.1c0,0,0-0.1,0-0.2v-6.3h-3v6.3c0,0.1,0,0.1-0.1,0.2c0,0-0.1,0.1-0.2,0.1s-0.2,0.1-0.3,0.1s-0.3,0-0.5,0
	s-0.4,0-0.5,0s-0.3,0-0.3-0.1s-0.1-0.1-0.2-0.1c0,0,0-0.1,0-0.2v-7.4c0-0.2,0-0.4,0.1-0.5s0.3-0.2,0.5-0.2h6.2
	c0.2,0,0.4,0.1,0.5,0.2s0.1,0.3,0.1,0.5v7.4H157.1z M167.3,90.1c0,0.7-0.1,1.3-0.3,1.8s-0.4,1-0.8,1.4s-0.8,0.7-1.3,0.9
	s-1.2,0.3-1.9,0.3s-1.3-0.1-1.8-0.3s-0.9-0.5-1.3-0.8s-0.6-0.8-0.8-1.4s-0.2-1.2-0.2-1.8c0-0.7,0.1-1.3,0.3-1.8
	c0.2-0.6,0.4-1,0.8-1.4c0.4-0.4,0.8-0.7,1.3-0.9s1.2-0.3,1.9-0.3s1.3,0.1,1.8,0.3s0.9,0.5,1.3,0.8s0.6,0.8,0.8,1.4
	S167.3,89.4,167.3,90.1z M165,90.1c0-0.4,0-0.7-0.1-1.1c-0.1-0.3-0.2-0.6-0.3-0.8s-0.3-0.4-0.6-0.6s-0.5-0.2-0.9-0.2
	c-0.3,0-0.6,0.1-0.9,0.2c-0.2,0.1-0.4,0.3-0.6,0.5c-0.2,0.2-0.3,0.5-0.4,0.8c-0.1,0.3-0.1,0.7-0.1,1.1s0,0.7,0.1,1.1
	c0.1,0.3,0.2,0.6,0.3,0.8s0.3,0.4,0.6,0.6c0.2,0.1,0.6,0.2,0.9,0.2c0.3,0,0.6-0.1,0.9-0.2s0.4-0.3,0.6-0.5s0.3-0.5,0.4-0.8
	C165,90.9,165,90.6,165,90.1z M176.6,94.1c0,0.1,0,0.1-0.1,0.2c0,0-0.1,0.1-0.2,0.1s-0.2,0.1-0.3,0.1s-0.3,0-0.5,0s-0.4,0-0.5,0
	s-0.3,0-0.3-0.1s-0.1-0.1-0.2-0.1c0,0-0.1-0.1-0.1-0.2V91h-3.2v3.1c0,0.1,0,0.1-0.1,0.2c0,0-0.1,0.1-0.2,0.1s-0.2,0.1-0.3,0.1
	s-0.3,0-0.5,0s-0.4,0-0.5,0s-0.3,0-0.3-0.1s-0.1-0.1-0.2-0.1c0,0-0.1-0.1-0.1-0.2v-7.8c0-0.1,0-0.1,0.1-0.2c0,0,0.1-0.1,0.2-0.1
	s0.2-0.1,0.3-0.1s0.3,0,0.5,0s0.4,0,0.5,0s0.3,0,0.3,0.1s0.1,0.1,0.2,0.1c0,0,0.1,0.1,0.1,0.2v2.9h3.2v-2.9c0-0.1,0-0.1,0.1-0.2
	c0,0,0.1-0.1,0.2-0.1s0.2-0.1,0.3-0.1s0.3,0,0.5,0s0.4,0,0.5,0s0.3,0,0.3,0.1s0.1,0.1,0.2,0.1c0,0,0.1,0.1,0.1,0.2V94.1z
	 M186.1,89.9c0,0.3-0.1,0.5-0.2,0.6s-0.3,0.2-0.5,0.2h-4.8c0,0.3,0,0.6,0.1,0.9s0.2,0.5,0.4,0.7s0.4,0.3,0.7,0.4s0.6,0.1,1,0.1
	s0.7,0,1-0.1s0.5-0.1,0.8-0.2c0.2-0.1,0.4-0.1,0.5-0.2s0.3-0.1,0.3-0.1c0.1,0,0.1,0,0.1,0l0.1,0.1c0,0,0,0.1,0,0.2s0,0.2,0,0.4
	c0,0.1,0,0.2,0,0.3c0,0.1,0,0.2,0,0.2s0,0.1-0.1,0.2l-0.1,0.1c0,0-0.1,0.1-0.3,0.2s-0.4,0.1-0.7,0.2s-0.6,0.1-0.9,0.2
	s-0.7,0.1-1.1,0.1c-0.7,0-1.3-0.1-1.8-0.3s-1-0.4-1.3-0.8s-0.6-0.8-0.8-1.4s-0.3-1.2-0.3-1.9c0-0.7,0.1-1.3,0.3-1.9s0.4-1,0.8-1.4
	s0.8-0.7,1.3-0.9s1.1-0.3,1.7-0.3c0.7,0,1.2,0.1,1.7,0.3s0.8,0.5,1.1,0.8s0.5,0.7,0.7,1.2s0.2,1,0.2,1.5v0.6H186.1z M183.9,89.3
	c0-0.6-0.1-1.1-0.4-1.5s-0.7-0.5-1.2-0.5c-0.3,0-0.5,0.1-0.7,0.2s-0.4,0.2-0.5,0.4s-0.2,0.4-0.3,0.6s-0.1,0.5-0.1,0.8H183.9z
	 M195.5,94.1c0,0.1,0,0.1-0.1,0.2c0,0-0.1,0.1-0.2,0.1s-0.2,0.1-0.3,0.1s-0.3,0-0.5,0s-0.4,0-0.5,0s-0.3,0-0.3-0.1s-0.1-0.1-0.2-0.1
	c0,0-0.1-0.1-0.1-0.2V91h-3.2v3.1c0,0.1,0,0.1-0.1,0.2c0,0-0.1,0.1-0.2,0.1s-0.2,0.1-0.3,0.1s-0.3,0-0.5,0s-0.4,0-0.5,0
	s-0.3,0-0.3-0.1s-0.1-0.1-0.2-0.1c0,0-0.1-0.1-0.1-0.2v-7.8c0-0.1,0-0.1,0.1-0.2c0,0,0.1-0.1,0.2-0.1s0.2-0.1,0.3-0.1s0.3,0,0.5,0
	s0.4,0,0.5,0s0.3,0,0.3,0.1s0.1,0.1,0.2,0.1c0,0,0.1,0.1,0.1,0.2v2.9h3.2v-2.9c0-0.1,0-0.1,0.1-0.2c0,0,0.1-0.1,0.2-0.1
	s0.2-0.1,0.3-0.1s0.3,0,0.5,0s0.4,0,0.5,0s0.3,0,0.3,0.1s0.1,0.1,0.2,0.1c0,0,0.1,0.1,0.1,0.2V94.1z M203.5,86.9c0,0.2,0,0.4,0,0.5
	s0,0.2-0.1,0.3s-0.1,0.1-0.1,0.2s-0.1,0-0.1,0h-2v6.2c0,0.1,0,0.1-0.1,0.2c0,0-0.1,0.1-0.2,0.1s-0.2,0.1-0.3,0.1s-0.3,0-0.5,0
	s-0.4,0-0.5,0s-0.3,0-0.3-0.1s-0.1-0.1-0.2-0.1c0,0,0-0.1,0-0.2v-6.2h-2c-0.1,0-0.1,0-0.2,0c0,0-0.1-0.1-0.1-0.2s-0.1-0.2-0.1-0.3
	s0-0.3,0-0.5s0-0.3,0-0.4s0-0.2,0.1-0.3s0.1-0.1,0.1-0.2s0.1,0,0.1,0h6.2c0.1,0,0.1,0,0.1,0s0.1,0.1,0.1,0.2s0.1,0.2,0.1,0.3
	S203.5,86.7,203.5,86.9z M210.6,89.7l1.8,3.4c0,0.1,0.1,0.1,0.1,0.2s0,0.1-0.1,0.2s-0.2,0.1-0.3,0.1s-0.3,0-0.5,0s-0.3,0-0.4,0
	s-0.2,0-0.3,0s-0.1,0-0.2-0.1l-0.1-0.1l-2-3.2c-0.1-0.1-0.1-0.3-0.1-0.4s0.1-0.3,0.1-0.4l1.9-3c0-0.1,0.1-0.1,0.1-0.1
	s0.1-0.1,0.2-0.1c0.1,0,0.2,0,0.3,0s0.3,0,0.4,0c0.2,0,0.4,0,0.5,0s0.2,0.1,0.3,0.1s0.1,0.1,0.1,0.2s0,0.1-0.1,0.2L210.6,89.7z
	 M216,93c0,0.1,0,0.1,0,0.2s0,0.1-0.1,0.1s-0.2,0.1-0.3,0.1s-0.3,0-0.5,0s-0.3,0-0.4,0s-0.2,0-0.3,0s-0.1,0-0.2-0.1
	s-0.1-0.1-0.1-0.1l-2-3c-0.1-0.1-0.1-0.2-0.1-0.4s0.1-0.3,0.1-0.4l1.8-2.9l0.1-0.1c0,0,0.1-0.1,0.2-0.1s0.2,0,0.3,0s0.2,0,0.4,0
	s0.4,0,0.5,0s0.2,0.1,0.3,0.1s0.1,0.1,0.1,0.1c0,0.1,0,0.1,0,0.2l-1.7,3.1L216,93z M227.5,94.1c0,0.1,0,0.1-0.1,0.2
	c0,0-0.1,0.1-0.2,0.1s-0.2,0.1-0.4,0.1c-0.1,0-0.3,0-0.6,0s-0.4,0-0.6,0c-0.1,0-0.3,0-0.4-0.1s-0.2-0.1-0.2-0.1s-0.1-0.1-0.1-0.2V85
	h-4.2v9.1c0,0.1,0,0.1-0.1,0.2c0,0-0.1,0.1-0.2,0.1s-0.2,0.1-0.4,0.1c-0.1,0-0.3,0-0.6,0c-0.2,0-0.4,0-0.6,0c-0.1,0-0.3,0-0.4-0.1
	s-0.1-0.1-0.2-0.1c0,0-0.1-0.1-0.1-0.2V83.7c0-0.2,0.1-0.4,0.2-0.5c0.1-0.1,0.3-0.2,0.5-0.2h7.5c0.2,0,0.4,0.1,0.5,0.2
	s0.2,0.3,0.2,0.5v10.4H227.5z M239.2,94.1c0,0.1,0,0.1-0.1,0.2c0,0-0.1,0.1-0.2,0.1s-0.2,0.1-0.4,0.1c-0.1,0-0.3,0-0.6,0
	s-0.4,0-0.6,0c-0.1,0-0.3,0-0.4-0.1s-0.1-0.1-0.2-0.1c0,0-0.1-0.1-0.1-0.2v-6c0-0.2,0-0.5,0-0.7s0-0.4,0-0.6l0,0
	c0,0.1-0.1,0.2-0.2,0.3s-0.1,0.2-0.2,0.3c-0.1,0.1-0.2,0.2-0.2,0.4c-0.1,0.1-0.2,0.2-0.2,0.4l-4,5.9c0,0.1-0.1,0.1-0.1,0.2
	s-0.1,0.1-0.2,0.1c-0.1,0-0.2,0-0.3,0.1c-0.1,0-0.3,0-0.4,0c-0.2,0-0.4,0-0.6,0c-0.1,0-0.3,0-0.3-0.1s-0.1-0.1-0.2-0.1s0-0.1,0-0.2
	V83.3c0-0.1,0-0.1,0.1-0.2c0,0,0.1-0.1,0.2-0.1s0.2-0.1,0.4-0.1c0.1,0,0.3,0,0.6,0c0.2,0,0.4,0,0.6,0c0.1,0,0.3,0,0.4,0.1
	s0.1,0.1,0.2,0.1c0,0,0.1,0.1,0.1,0.2v6c0,0.2,0,0.4,0,0.6s0,0.4,0,0.6l0,0c0.1-0.2,0.2-0.4,0.4-0.6s0.3-0.5,0.5-0.7l4-5.9
	c0-0.1,0.1-0.1,0.1-0.2c0,0,0.1-0.1,0.2-0.1s0.2,0,0.3-0.1s0.3,0,0.4,0c0.2,0,0.4,0,0.5,0s0.2,0,0.3,0.1s0.1,0.1,0.2,0.1
	c0,0,0,0.1,0,0.2V94.1z M249.3,83.9c0,0.2,0,0.3,0,0.4s0,0.2-0.1,0.3c0,0.1-0.1,0.1-0.1,0.2s-0.1,0.1-0.1,0.1h-2.8v9.2
	c0,0.1,0,0.1-0.1,0.2s-0.1,0.1-0.2,0.1s-0.2,0.1-0.4,0.1s-0.3,0-0.6,0s-0.4,0-0.6,0s-0.3,0-0.4-0.1s-0.2-0.1-0.2-0.1
	s-0.1-0.1-0.1-0.2v-9.2h-2.8c-0.1,0-0.1,0-0.1-0.1s-0.1-0.1-0.1-0.2s-0.1-0.2-0.1-0.3s0-0.3,0-0.4c0-0.2,0-0.3,0-0.4s0-0.2,0.1-0.3
	s0.1-0.1,0.1-0.2s0.1,0,0.1,0h8c0.1,0,0.1,0,0.1,0s0.1,0.1,0.1,0.2s0.1,0.2,0.1,0.3S249.3,83.8,249.3,83.9z M258.7,93.5
	c0.1,0.2,0.1,0.4,0.1,0.5s0,0.2-0.1,0.3c-0.1,0.1-0.2,0.1-0.3,0.1c-0.2,0-0.4,0-0.7,0s-0.5,0-0.7,0c-0.2,0-0.3,0-0.4-0.1
	c-0.1,0-0.1-0.1-0.2-0.1c-0.1,0-0.1-0.1-0.1-0.2l-0.8-2.3h-4.1l-0.7,2.2c0,0.1-0.1,0.2-0.1,0.2s-0.1,0.1-0.2,0.1
	c-0.1,0-0.2,0.1-0.4,0.1s-0.4,0-0.6,0c-0.3,0-0.5,0-0.6,0s-0.3-0.1-0.3-0.1c-0.1-0.1-0.1-0.2-0.1-0.3s0.1-0.3,0.1-0.5l3.5-10.1
	c0-0.1,0.1-0.2,0.1-0.2c0-0.1,0.1-0.1,0.2-0.1c0.1,0,0.2-0.1,0.4-0.1s0.4,0,0.7,0s0.6,0,0.8,0s0.4,0,0.5,0.1c0.1,0,0.2,0.1,0.2,0.1
	s0.1,0.2,0.1,0.3L258.7,93.5z M253.5,85.2L253.5,85.2l-1.6,4.8h3.2L253.5,85.2z M269.2,94c0,0.1,0,0.1-0.1,0.2s-0.1,0.1-0.2,0.1
	s-0.2,0.1-0.4,0.1s-0.3,0-0.6,0c-0.2,0-0.4,0-0.6,0s-0.3,0-0.4-0.1s-0.1-0.1-0.2-0.1s-0.1-0.1-0.1-0.2v-4.6h-4.3V94
	c0,0.1,0,0.1-0.1,0.2s-0.1,0.1-0.2,0.1s-0.2,0.1-0.4,0.1s-0.3,0-0.6,0c-0.2,0-0.4,0-0.6,0s-0.3,0-0.4-0.1s-0.2-0.1-0.2-0.1
	s-0.1-0.1-0.1-0.2V83.3c0-0.1,0-0.1,0.1-0.2s0.1-0.1,0.2-0.1s0.2-0.1,0.4-0.1s0.3,0,0.6,0c0.2,0,0.4,0,0.6,0s0.3,0,0.4,0.1
	s0.1,0.1,0.2,0.1s0.1,0.1,0.1,0.2v4.2h4.3v-4.2c0-0.1,0-0.1,0.1-0.2s0.1-0.1,0.2-0.1s0.2-0.1,0.4-0.1s0.3,0,0.6,0c0.2,0,0.4,0,0.6,0
	s0.3,0,0.4,0.1s0.2,0.1,0.2,0.1s0.1,0.1,0.1,0.2V94z M280.9,94.1c0,0.1,0,0.1-0.1,0.2c0,0-0.1,0.1-0.2,0.1s-0.2,0.1-0.4,0.1
	c-0.1,0-0.3,0-0.6,0s-0.4,0-0.6,0c-0.1,0-0.3,0-0.4-0.1s-0.1-0.1-0.2-0.1c0,0-0.1-0.1-0.1-0.2v-6c0-0.2,0-0.5,0-0.7s0-0.4,0-0.6l0,0
	c0,0.1-0.1,0.2-0.2,0.3s-0.1,0.2-0.2,0.3c-0.1,0.1-0.2,0.2-0.2,0.4c-0.1,0.1-0.2,0.2-0.2,0.4l-4,5.9c0,0.1-0.1,0.1-0.1,0.2
	s-0.1,0.1-0.2,0.1s-0.2,0-0.3,0.1c-0.1,0-0.3,0-0.4,0c-0.2,0-0.4,0-0.6,0c-0.1,0-0.3,0-0.3-0.1s-0.1-0.1-0.2-0.1s0-0.1,0-0.2V83.3
	c0-0.1,0-0.1,0.1-0.2c0,0,0.1-0.1,0.2-0.1s0.2-0.1,0.4-0.1c0.1,0,0.3,0,0.6,0c0.2,0,0.4,0,0.6,0c0.1,0,0.3,0,0.4,0.1
	s0.1,0.1,0.2,0.1c0,0,0.1,0.1,0.1,0.2v6c0,0.2,0,0.4,0,0.6s0,0.4,0,0.6l0,0c0.1-0.2,0.2-0.4,0.4-0.6s0.3-0.5,0.5-0.7l4-5.9
	c0-0.1,0.1-0.1,0.1-0.2c0,0,0.1-0.1,0.2-0.1s0.2,0,0.3-0.1s0.3,0,0.4,0c0.2,0,0.4,0,0.5,0s0.2,0,0.3,0.1s0.1,0.1,0.2,0.1
	c0,0,0,0.1,0,0.2L280.9,94.1L280.9,94.1z M290.1,93.4c0,0.2,0,0.3,0,0.4s0,0.2-0.1,0.3s-0.1,0.1-0.1,0.2h-0.1h-5.7
	c-0.2,0-0.4-0.1-0.5-0.2s-0.2-0.3-0.2-0.6v-9.9c0-0.3,0.1-0.4,0.2-0.6c0.1-0.1,0.3-0.2,0.5-0.2h5.7c0.1,0,0.1,0,0.1,0
	s0.1,0.1,0.1,0.2s0.1,0.2,0.1,0.3c0,0.1,0,0.3,0,0.4c0,0.2,0,0.3,0,0.4s0,0.2-0.1,0.3s-0.1,0.1-0.1,0.2h-0.1h-4.1v2.8h3.4
	c0.1,0,0.1,0,0.1,0l0.1,0.1c0,0.1,0.1,0.2,0.1,0.3c0,0.1,0,0.3,0,0.4c0,0.2,0,0.3,0,0.4s0,0.2-0.1,0.3s-0.1,0.1-0.1,0.1h-0.1h-3.4
	v3.2h4.1c0.1,0,0.1,0,0.1,0s0.1,0.1,0.1,0.2s0.1,0.2,0.1,0.3C290.1,93.1,290.1,93.3,290.1,93.4z M294.2,93.1c0,0.1-0.1,0.1-0.1,0.1
	s-0.1,0.1-0.2,0.1s-0.2,0-0.3,0c-0.1,0-0.2,0-0.4,0c-0.2,0-0.4,0-0.5,0s-0.2,0-0.3-0.1s-0.1-0.1-0.1-0.1s0-0.1,0.1-0.2l1.7-3.1
	l-1.8-3.2c0-0.1-0.1-0.1-0.1-0.2s0-0.1,0.1-0.1s0.2-0.1,0.3-0.1s0.3,0,0.5,0s0.3,0,0.4,0s0.2,0,0.3,0c0.1,0,0.1,0,0.2,0.1
	s0.1,0.1,0.1,0.1l1.9,3c0.1,0.1,0.1,0.2,0.1,0.4s-0.1,0.3-0.1,0.4L294.2,93.1z M297.8,93.3c0,0.1-0.1,0.1-0.1,0.1s-0.1,0.1-0.2,0.1
	s-0.2,0-0.3,0s-0.2,0-0.4,0c-0.2,0-0.4,0-0.5,0s-0.2-0.1-0.3-0.1c-0.1,0-0.1-0.1-0.1-0.2s0-0.1,0-0.2l1.7-3.3l-1.8-3.4
	c0-0.1-0.1-0.1-0.1-0.2s0-0.1,0.1-0.2s0.2-0.1,0.3-0.1s0.3,0,0.5,0s0.3,0,0.4,0s0.2,0,0.3,0c0.1,0,0.1,0.1,0.2,0.1l0.1,0.1l2,3.2
	c0.1,0.1,0.1,0.2,0.1,0.4s-0.1,0.3-0.1,0.4L297.8,93.3z M311.7,92.8c0,0.2,0,0.3,0,0.4s0,0.2,0,0.3s0,0.1-0.1,0.2
	c0,0-0.1,0.1-0.1,0.2s-0.2,0.1-0.4,0.2c-0.2,0.1-0.4,0.2-0.6,0.3s-0.5,0.1-0.7,0.2s-0.5,0.1-0.8,0.1c-0.6,0-1.1-0.1-1.6-0.3
	s-0.9-0.5-1.2-0.8s-0.6-0.8-0.7-1.3s-0.2-1.1-0.2-1.8c0-0.8,0.1-1.5,0.3-2c0.2-0.6,0.5-1,0.8-1.4s0.8-0.7,1.2-0.8s1-0.3,1.6-0.3
	c0.2,0,0.5,0,0.7,0.1s0.4,0.1,0.6,0.2s0.4,0.1,0.5,0.2s0.3,0.2,0.3,0.2s0.1,0.1,0.1,0.2c0,0,0,0.1,0.1,0.2s0,0.2,0,0.3
	c0,0.1,0,0.2,0,0.4c0,0.3,0,0.6-0.1,0.7s-0.1,0.2-0.2,0.2s-0.2,0-0.3-0.1s-0.2-0.2-0.4-0.3s-0.3-0.2-0.5-0.3s-0.5-0.1-0.8-0.1
	c-0.6,0-1,0.2-1.3,0.7s-0.5,1.1-0.5,1.9c0,0.4,0,0.8,0.1,1.1s0.2,0.6,0.3,0.8s0.3,0.4,0.6,0.5s0.5,0.2,0.8,0.2s0.6,0,0.8-0.1
	c0.2-0.1,0.4-0.2,0.6-0.3s0.3-0.2,0.4-0.3s0.2-0.1,0.3-0.1c0.1,0,0.1,0,0.1,0s0.1,0.1,0.1,0.2s0,0.2,0,0.3S311.7,92.6,311.7,92.8z
	 M321.2,90.1c0,0.7-0.1,1.3-0.3,1.8s-0.4,1-0.8,1.4s-0.8,0.7-1.3,0.9s-1.2,0.3-1.9,0.3c-0.7,0-1.3-0.1-1.8-0.3s-0.9-0.5-1.3-0.8
	s-0.6-0.8-0.8-1.4s-0.2-1.2-0.2-1.8c0-0.7,0.1-1.3,0.3-1.8c0.2-0.6,0.4-1,0.8-1.4s0.8-0.7,1.3-0.9s1.2-0.3,1.9-0.3
	c0.7,0,1.3,0.1,1.8,0.3s0.9,0.5,1.3,0.8s0.6,0.8,0.8,1.4S321.2,89.4,321.2,90.1z M318.9,90.1c0-0.4,0-0.7-0.1-1.1
	c-0.1-0.3-0.2-0.6-0.3-0.8s-0.3-0.4-0.6-0.6s-0.5-0.2-0.9-0.2c-0.3,0-0.6,0.1-0.9,0.2c-0.2,0.1-0.4,0.3-0.6,0.5s-0.3,0.5-0.4,0.8
	S315,89.6,315,90s0,0.7,0.1,1.1c0.1,0.3,0.2,0.6,0.3,0.8s0.3,0.4,0.6,0.6c0.2,0.1,0.6,0.2,0.9,0.2s0.6-0.1,0.9-0.2s0.4-0.3,0.6-0.5
	s0.3-0.5,0.4-0.8S318.9,90.6,318.9,90.1z M335.4,94.1c0,0.1,0,0.1-0.1,0.2c0,0-0.1,0.1-0.2,0.1s-0.2,0.1-0.3,0.1c-0.1,0-0.3,0-0.5,0
	s-0.4,0-0.5,0s-0.3,0-0.3-0.1s-0.1-0.1-0.2-0.1c0,0,0-0.1,0-0.2v-4.6c0-0.3,0-0.5-0.1-0.7s-0.1-0.4-0.2-0.6s-0.2-0.3-0.4-0.4
	c-0.2-0.1-0.3-0.1-0.6-0.1c-0.3,0-0.5,0.1-0.8,0.3s-0.6,0.5-0.9,0.9v5.2c0,0.1,0,0.1-0.1,0.2c0,0-0.1,0.1-0.2,0.1s-0.2,0.1-0.3,0.1
	c-0.1,0-0.3,0-0.5,0s-0.4,0-0.5,0s-0.3,0-0.3-0.1s-0.1-0.1-0.2-0.1c0,0-0.1-0.1-0.1-0.2v-4.6c0-0.3,0-0.5-0.1-0.7s-0.1-0.4-0.2-0.6
	s-0.2-0.3-0.4-0.4c-0.2-0.1-0.3-0.1-0.6-0.1c-0.3,0-0.5,0.1-0.8,0.3s-0.6,0.5-0.9,0.9v5.2c0,0.1,0,0.1-0.1,0.2c0,0-0.1,0.1-0.2,0.1
	s-0.2,0.1-0.3,0.1c-0.1,0-0.3,0-0.5,0s-0.4,0-0.5,0s-0.3,0-0.3-0.1s-0.1-0.1-0.2-0.1c0,0-0.1-0.1-0.1-0.2v-7.8c0-0.1,0-0.1,0-0.2
	c0,0,0.1-0.1,0.2-0.1s0.2-0.1,0.3-0.1c0.1,0,0.3,0,0.5,0s0.3,0,0.5,0c0.1,0,0.2,0,0.3,0.1s0.1,0.1,0.1,0.1s0,0.1,0,0.2v0.9
	c0.4-0.5,0.9-0.8,1.3-1.1s0.9-0.4,1.3-0.4c0.3,0,0.6,0,0.9,0.1s0.5,0.2,0.7,0.3s0.4,0.3,0.5,0.5s0.3,0.4,0.4,0.6
	c0.2-0.3,0.5-0.5,0.7-0.7s0.4-0.3,0.7-0.4c0.2-0.1,0.4-0.2,0.7-0.3c0.2-0.1,0.4-0.1,0.7-0.1c0.5,0,1,0.1,1.3,0.3s0.6,0.4,0.9,0.7
	c0.2,0.3,0.4,0.7,0.5,1.1s0.1,0.8,0.1,1.3L335.4,94.1L335.4,94.1z M345.5,96.7c0,0.3,0,0.5-0.1,0.6s-0.1,0.2-0.3,0.2h-8.3
	c-0.1,0-0.2-0.1-0.3-0.2s-0.1-0.3-0.1-0.6s0-0.5,0.1-0.6s0.2-0.2,0.3-0.2h8.3c0.1,0,0.2,0.1,0.3,0.2S345.5,96.4,345.5,96.7z
	 M351.2,83.2c0,0.2,0,0.3,0,0.4s0,0.2-0.1,0.2s0,0.1-0.1,0.1h-0.1h-0.1c0,0-0.1,0-0.2-0.1s-0.2,0-0.3-0.1s-0.2,0-0.4,0
	c-0.2,0-0.3,0-0.4,0.1s-0.2,0.1-0.3,0.2s-0.1,0.2-0.2,0.4s-0.1,0.4-0.1,0.6v0.7h1.4c0.1,0,0.1,0,0.1,0l0.1,0.1c0,0,0.1,0.2,0.1,0.3
	s0,0.3,0,0.4c0,0.3,0,0.6-0.1,0.7s-0.1,0.2-0.3,0.2h-1.4v6.3c0,0.1,0,0.1-0.1,0.2c0,0-0.1,0.1-0.2,0.1s-0.2,0.1-0.3,0.1
	c-0.1,0-0.3,0-0.5,0s-0.4,0-0.5,0s-0.3,0-0.3-0.1s-0.1-0.1-0.2-0.1c0,0,0-0.1,0-0.2v-6.3h-1c-0.1,0-0.2-0.1-0.3-0.2
	c-0.1-0.1-0.1-0.4-0.1-0.7c0-0.2,0-0.3,0-0.4s0-0.2,0.1-0.3s0.1-0.1,0.1-0.1s0.1,0,0.2,0h1V85c0-0.5,0.1-1,0.2-1.4s0.3-0.7,0.5-1
	s0.5-0.5,0.9-0.6s0.8-0.2,1.2-0.2c0.2,0,0.4,0,0.7,0.1c0.2,0,0.4,0.1,0.5,0.1s0.2,0.1,0.2,0.1s0.1,0.1,0.1,0.2s0,0.2,0.1,0.3
	C351.2,82.9,351.2,83.1,351.2,83.2z M359.9,90.1c0,0.7-0.1,1.3-0.3,1.8s-0.4,1-0.8,1.4s-0.8,0.7-1.3,0.9s-1.2,0.3-1.9,0.3
	c-0.7,0-1.3-0.1-1.8-0.3s-0.9-0.5-1.3-0.8s-0.6-0.8-0.8-1.4s-0.2-1.2-0.2-1.8c0-0.7,0.1-1.3,0.3-1.8c0.2-0.6,0.4-1,0.8-1.4
	s0.8-0.7,1.3-0.9s1.2-0.3,1.9-0.3c0.7,0,1.3,0.1,1.8,0.3s0.9,0.5,1.3,0.8s0.6,0.8,0.8,1.4S359.9,89.4,359.9,90.1z M357.6,90.1
	c0-0.4,0-0.7-0.1-1.1c-0.1-0.3-0.2-0.6-0.3-0.8s-0.3-0.4-0.6-0.6s-0.5-0.2-0.9-0.2c-0.3,0-0.6,0.1-0.9,0.2c-0.2,0.1-0.4,0.3-0.6,0.5
	s-0.3,0.5-0.4,0.8s-0.1,0.7-0.1,1.1s0,0.7,0.1,1.1c0.1,0.3,0.2,0.6,0.3,0.8s0.3,0.4,0.6,0.6c0.2,0.1,0.6,0.2,0.9,0.2
	s0.6-0.1,0.9-0.2s0.4-0.3,0.6-0.5s0.3-0.5,0.4-0.8S357.6,90.6,357.6,90.1z M369.5,90.1c0,0.7-0.1,1.3-0.3,1.8s-0.4,1-0.8,1.4
	s-0.8,0.7-1.3,0.9s-1.2,0.3-1.9,0.3c-0.7,0-1.3-0.1-1.8-0.3s-0.9-0.5-1.3-0.8s-0.6-0.8-0.8-1.4s-0.2-1.2-0.2-1.8
	c0-0.7,0.1-1.3,0.3-1.8c0.2-0.6,0.4-1,0.8-1.4s0.8-0.7,1.3-0.9s1.2-0.3,1.9-0.3c0.7,0,1.3,0.1,1.8,0.3s0.9,0.5,1.3,0.8
	s0.6,0.8,0.8,1.4S369.5,89.4,369.5,90.1z M367.3,90.1c0-0.4,0-0.7-0.1-1.1c-0.1-0.3-0.2-0.6-0.3-0.8s-0.3-0.4-0.6-0.6
	s-0.5-0.2-0.9-0.2c-0.3,0-0.6,0.1-0.9,0.2c-0.2,0.1-0.4,0.3-0.6,0.5s-0.3,0.5-0.4,0.8s-0.1,0.7-0.1,1.1s0,0.7,0.1,1.1
	c0.1,0.3,0.2,0.6,0.3,0.8s0.3,0.4,0.6,0.6c0.2,0.1,0.6,0.2,0.9,0.2s0.6-0.1,0.9-0.2s0.4-0.3,0.6-0.5s0.3-0.5,0.4-0.8
	C367.2,90.9,367.3,90.6,367.3,90.1z M378.7,94.1c0,0.1,0,0.1,0,0.2l-0.1,0.1c0,0-0.2,0-0.3,0.1s-0.3,0-0.4,0c-0.2,0-0.3,0-0.5,0
	s-0.2,0-0.3-0.1s-0.1-0.1-0.2-0.1c0,0,0-0.1,0-0.2v-0.9c-0.4,0.4-0.8,0.8-1.3,1s-0.9,0.4-1.5,0.4s-1.1-0.1-1.5-0.3
	c-0.4-0.2-0.8-0.5-1-0.9s-0.4-0.9-0.6-1.4c-0.1-0.5-0.2-1.1-0.2-1.7c0-0.7,0.1-1.3,0.2-1.9s0.4-1,0.7-1.4s0.6-0.7,1.1-0.9
	s0.9-0.3,1.5-0.3c0.4,0,0.8,0.1,1.2,0.3s0.7,0.4,1.1,0.8v-4.2c0-0.1,0-0.1,0-0.2s0.1-0.1,0.2-0.1s0.2-0.1,0.3-0.1s0.3,0,0.5,0
	s0.4,0,0.5,0s0.3,0,0.3,0.1c0.1,0,0.1,0.1,0.2,0.1s0.1,0.1,0.1,0.2L378.7,94.1L378.7,94.1z M376.5,88.8c-0.3-0.4-0.6-0.7-0.9-0.9
	s-0.6-0.3-0.9-0.3s-0.5,0.1-0.7,0.2s-0.4,0.3-0.5,0.6s-0.2,0.5-0.3,0.8s-0.1,0.6-0.1,0.9s0,0.6,0.1,1s0.1,0.6,0.3,0.8
	c0.1,0.2,0.3,0.4,0.5,0.6s0.5,0.2,0.8,0.2c0.2,0,0.3,0,0.4-0.1c0.1,0,0.3-0.1,0.4-0.2s0.3-0.2,0.5-0.4s0.3-0.4,0.5-0.6L376.5,88.8
	L376.5,88.8z"/>
<g transform="translate(-35 -35)">
	<path fill="#3B3A40" d="M154,52.3v31.3c0,2.8,0.2,5.4-2.3,7.3c-2.3,1.9-6.2,2.5-10.4,2.5c-6.4,0-13.2-1.5-13.2-1.5l-1.5,4
		c0,0,9.5,2,16.4,2.1c5.8,0.1,10.9-1.2,13.7-4.4c2.3-2.6,3-5.6,2.9-10.7V52.3H154z"/>
	<path fill="#3B3A40" d="M200.7,69.6c-4.2-2.3-9.3-3.5-15.1-3.5c-5.7,0-10.8,1.2-15.1,3.5c-5.4,2.9-8.1,7.2-8.1,12.6s2.7,9.7,8.1,12.6
		c4.3,2.3,9.3,3.5,15.1,3.5c5.7,0,10.8-1.2,15-3.5c5.4-2.9,8.1-7.2,8.1-12.6C208.7,76.7,206,72.5,200.7,69.6 M197.4,91.6
		c-3.3,1.9-7.2,2.8-11.8,2.8c-4.7,0-8.7-0.9-11.9-2.7c-3.9-2.2-5.8-5.3-5.8-9.5c0-4.1,2-7.3,5.8-9.5c3.2-1.8,7.2-2.7,11.9-2.7
		c4.6,0,8.6,0.9,11.9,2.7c3.8,2.2,5.8,5.4,5.8,9.5C203.2,86.2,201.3,89.4,197.4,91.6z"/>
	<path fill="#3B3A40" d="M249.9,69.6c-4.2-2.3-9.3-3.5-15.1-3.5c-5.7,0-10.8,1.2-15.1,3.5c-5.4,2.9-8.1,7.2-8.1,12.6s2.7,9.7,8.1,12.6
		c4.3,2.3,9.3,3.5,15.1,3.5c5.7,0,10.8-1.2,15-3.5c5.4-2.9,8.1-7.2,8.1-12.6C257.9,76.7,255.2,72.5,249.9,69.6 M246.6,91.6
		c-3.3,1.9-7.2,2.8-11.8,2.8c-4.7,0-8.7-0.9-11.9-2.7c-3.9-2.2-5.8-5.3-5.8-9.5c0-4.1,2-7.3,5.8-9.5c3.2-1.8,7.2-2.7,11.9-2.7
		c4.6,0,8.6,0.9,11.9,2.7c3.8,2.2,5.8,5.4,5.8,9.5C252.4,86.2,250.5,89.4,246.6,91.6z"/>
	<path fill="#3B3A40" d="M317.8,68.8c-3-1.8-6.9-2.7-11.5-2.7c-5.9,0-10.6,1.8-14.2,5.4c-3.4-3.6-8.2-5.4-14.1-5.4
		c-4.8,0-8.7,1-11.7,2.9v-2.5H261v31.1h5.3V76.4c0.4-1.5,1.4-2.9,3-4.1c2.2-1.5,5-2.3,8.5-2.3c3.1,0,5.7,0.6,7.9,1.9
		c2.6,1.5,3.8,3.5,3.8,6.3v19.6h5.2V78.1c0-2.8,1.2-4.8,3.8-6.3c2.2-1.2,4.9-1.9,8-1.9s5.8,0.6,8,1.9c2.6,1.5,3.8,3.5,3.8,6.3v19.6
		h5.3V78.8C323.5,74.4,321.5,71,317.8,68.8"/>
	<path fill="#3B3A40" d="M327.7,52.3v45.4h5.3V52.3H327.7z"/>
	<path fill="#3B3A40" d="M392.1,52.3v35.1h5.3V52.3H392.1z"/>
	<path fill="#3B3A40" d="M378.2,66.5v5.3c-4.5-3.8-10.5-5.8-17.9-5.8c-5.9,0-11,1.1-15.2,3.4c-5.2,2.9-7.9,7.1-7.9,12.7
		c0,5.5,2.7,9.8,8.1,12.6c4.2,2.3,9.3,3.4,15.2,3.4c2.9,0,5.8-0.3,8.4-1c3.7-1,6.8-2.4,9.2-4.3v4.8h5.3V66.5H378.2z M342.8,82.2
		c0-4.1,2-7.3,5.8-9.5c3.2-1.8,7.3-2.7,12-2.7c5.8,0,10.3,1.4,13.5,4.2c2.8,2.5,4.2,5.7,4.2,9.6v3.7c-2.2,2.5-5.5,4.4-9.7,5.7
		c-2.5,0.8-5.2,1.2-8,1.2c-4.8,0-8.8-0.9-12-2.6C344.7,89.5,342.8,86.4,342.8,82.2z"/>
	<path fill="#3B3A40" d="M394.8,91.8c-3.7,0-4.2,1.9-4.2,3.1s0.6,3.1,4.2,3.1c3.7,0,4.2-2,4.2-3.1S398.4,91.8,394.8,91.8z"/>
	<path fill="#3B3A40" d="M413.8,57.9c0,3.1-2,5.7-5.6,5.7s-5.6-2.6-5.6-5.7s2-5.7,5.6-5.7S413.8,54.8,413.8,57.9z M403.8,57.9
		c0,2.6,1.6,4.6,4.4,4.6s4.4-2,4.4-4.6s-1.6-4.6-4.4-4.6S403.8,55.3,403.8,57.9z M409.3,58.6c2.2-0.4,2-3.7-0.5-3.7h-2.7v5.8h1.1v-2
		h1l1.6,2h1.2v-0.2L409.3,58.6z M408.8,55.9c1.3,0,1.3,1.9,0,1.9h-1.6v-1.9H408.8z"/>
</g>
<g transform="translate(-35 -35)">
	<path fill="#7AC143" d="M51,75.2l-1.4-1.4c-4.5-4.5-5.8-10.8-4.2-16.5c-4.5-1-7.8-5-7.8-9.8c0-5.5,4.5-10,10-10c5,0,9.1,3.6,9.9,8.4
		c5.4-1.3,11.3,0.2,15.5,4.4l0.6,0.6l-7.4,7.4l-0.6-0.6c-2.4-2.4-6.3-2.4-8.7,0s-2.4,6.3,0,8.7L73.5,83l-7.4,7.4l-7.8-7.8L51,75.2z"
		/>
	<path fill="#F9A541" d="M59.3,67l16.6-16.6c4.4-4.4,10.8-5.8,16.4-4.2c0.7-4.9,4.9-8.6,9.9-8.6c5.5,0,10,4.5,10,10
		c0,5.1-3.8,9.3-8.7,9.9c1.6,5.6,0.2,11.9-4.2,16.3l-0.6,0.6L91.5,67l0.6-0.6c2.4-2.4,2.4-6.3,0-8.7s-6.3-2.4-8.7,0L66.8,74.3
		L59.3,67z"/>
	<path fill="#F44321" d="M92.6,104.3c-5.7,1.7-12.1,0.4-16.6-4.1l-0.6-0.6l7.4-7.4l0.6,0.6c2.4,2.4,6.3,2.4,8.7,0s2.4-6.3,0-8.7
		L75.5,67.5l7.4-7.4l16.7,16.7c4.2,4.2,5.7,10.2,4.4,15.7c4.9,0.7,8.6,4.9,8.6,9.9c0,5.5-4.5,10-10,10
		C97.6,112.3,93.5,108.8,92.6,104.3z"/>
	<path fill="#5091CD" d="M89.7,83.5l-16.6,16.6c-4.3,4.3-10.3,5.7-15.7,4.4c-1,4.5-5,7.8-9.8,7.8c-5.5,0-10-4.5-10-10
		c0-4.7,3.3-8.7,7.7-9.7c-1.4-5.6,0-11.6,4.3-15.9l0.6-0.6l7.4,7.4L57,84.1c-2.4,2.4-2.4,6.3,0,8.7s6.3,2.4,8.7,0l16.6-16.6
		L89.7,83.5z"/>
</g>
</svg>
